<?xml version="1.0" encoding="UTF-8"?><svg id="a" xmlns="http://www.w3.org/2000/svg" viewBox="0 0 376.96 192.16"><defs><style>.b{fill:none;stroke:#000;stroke-linecap:round;stroke-linejoin:round;stroke-width:2px;}</style></defs><path class="b" d="M53.88,129.65c14,6.6,28,.97,42.2-.58,.94,3.55-1.79,5.8-1.7,8.58,.33,.33,.71,.99,.99,.95,8.7-1.2,16.49-4.56,22.93-10.54,1.69-1.56,1.86-3.95-.4-5.95-4.62-4.08-10.42-5.3-16.04-6.93-6.79-1.98-13.64-3.79-20.5-5.49-2.58-.64-4.65-1.72-6.05-3.91,.15-2.06,1.29-2.41,3.05-2.7,12.25-2.06,23.98-.56,35.57,3.92,3.99,1.54,5.53,4.09,6.44,7.65,1.79,7.02,3.86,13.98,8.05,19.96,5.28,7.53,13.9,9.48,21.99,11.38,19.09,4.48,38.39,7.34,57.97,2.66,4.12-.99,8.17-2.09,12.02-3.97,8.88-4.34,13.14-10.92,9.88-22-3.48-11.83-9.54-22.4-17.31-32.1-5.45-6.81-12.53-9.04-20.58-8.81-4.86,.13-9.8,.55-14.52,2.33-6.79,2.56-8.64,5.51-7.5,12.55,2.34,14.34,8.67,27.18,15.1,39.96,1.07,2.13,3.11,3.87,4.97,5.48,.97,.83,2.31,1.9,3.97,.6,1.51-1.18,1.35-2.94,.86-3.99-1.54-3.3-3.61-6.36-5.38-9.56-2.96-5.36-7.24-9.93-9.06-15.98-1.73-5.76-1.39-8.23,3.07-11.99,4.74-3.99,10.33-6.62,16.02-8.92,1.21-.49,3.26-.83,4.62,1.13-2.14,6.48-9.53,8.53-12.94,14.52,8.07,3.37,17.2-1.2,25.32,3.42-5.05,4.57-11.37,3.52-16.9,5.63,2.23,4.63,6.88,5.64,10.45,7.52,11.62,6.12,9.32,8.98,1.28,15.51-11.46,9.31-22.79,8.38-32.84-2.36-2.99-3.19-5.51-6.83-8.56-9.94-5.19-5.28-5.49-5.19-11.91-1.46-3.09,1.8-5.78,4.32-9.04,5.93-4.89,2.41-7.88,2.2-11.47-1.54-8.52-8.88-13.33-19.78-16.49-31.48-.65-2.42,.26-4.46,2.44-6.01,9.97-7.13,20.35-12.94,33.01-14.08,13.16-1.18,26.32-2.58,39.51-2.28,14.93,.34,26.27,7.58,32.81,20.98,2.49,5.1,2.84,11.24,4.19,16.91,.64,2.67,.9,5.54,2.08,7.96,3.33,6.84,7.91,11.74,16.4,12.73,9.98,1.16,19.48,1.35,28.53-3.67,5.39-2.99,7.55-7.3,6.58-13.52-.66-4.22-1.4-8.41-2.69-12.45-.45-1.42-.36-2.68-.4-4.03"/><path class="b" d="M250.88,96.15c.97,.33,1.93-1.69,3.16,.4,.8,1.35,3.16,1.78,4.84,2.59,9.53,4.65,9.65,5.25,2.52,12.52-.17,.17-.02,.65-.02,1.49,2.63,2.24,6.5,2.78,9.6,4.83,2.88,1.91,4.7,3.75,3.85,7.15-1.06,4.22-4.78,5.07-7.9,3.88-14.27-5.45-28.27-11.37-33.62-27.84-1.99-6.12-2.32-12.32-1.84-18.52,.75-9.66,6.14-12.76,15.92-10.04,10.59,2.95,20.24,7.44,28.07,15.45,1.25,1.28,2.14,2.52,2.96,4.06,4.54,8.54,10.86,15.19,19.38,20.16,8.9,5.19,16.84,3.11,23.97-2.28,9.16-6.92,14.44-16.21,12.65-28.36-.14-.95,.29-1.99,.46-2.99,13.34-2.08,23.68,4.75,33.41,12.12,10.08,7.65,9.98,15.85,1.12,24.9-8.92,9.12-20.34,14.42-31.63,19.23-19.65,8.38-40.3,13.9-61.38,17.83-19.7,3.67-39.51,6.04-59.52,6.91-23.53,1.03-47.01,.53-70.51-1.38-25.68-2.08-51.06-5.61-75.99-12.14-16.86-4.42-33.24-10.11-47.46-20.54-6.87-5.04-12.2-11.35-14.63-19.92-2.13-7.54,.51-13.63,4.6-19.51,1.03-1.48,3.04-2.31,2.98-4.51"/><path class="b" d="M32.88,72.65c4.68-4.8,10.93-5.13,17.07-5.89-3.93,4.24-9.36,5.39-14.61,6.18-2.44,.37-4.69,.82-6.98,1.68-5.55,2.06-10.65,5.11-15.88,7.76-7.23,3.66-9.86,11.24-11.02,18.8-2.68,17.4,6.37,29.02,19.94,37.95,13.66,8.99,29.02,14.33,44.52,18.9,25.35,7.48,51.28,12.72,77.48,15.95,21.89,2.7,43.94,2.19,65.99,.3,20.67-1.78,41.14-4.65,61.5-8.55,17.06-3.27,33.25-9.19,49.47-15.1,2.14-.78,4.18-1.68,6.52-1.46"/><path class="b" d="M341.88,140.65c7-8.61,22.1-16.43,28.79-14.24-9.11,5.86-17.56,11.55-27.76,14.36-5.92,1.63-11.26,5.11-15.96,8.97-18.05,14.78-37.28,27.55-59.62,34.77-8.3,2.68-17.24,2.94-25.96,3.58-16.82,1.22-33.66,2.77-50.5,2.89-23.16,.17-46.32,.49-69.51-.6-21.98-1.03-40.42-10.28-58.47-21.27-6.64-4.04-13.65-7.6-19.02-13.46"/><path class="b" d="M233.38,42.65c-.47-3.97-3.51-5.65-6.48-7.53-12.79-8.06-27-12.44-41.52-15.96-15.99-3.88-30.32,.81-44.56,7.86-17.77,8.79-36.05,16.53-53.46,26.09-7.67,4.21-9.19,6.96-6.42,15.02,2.45,7.13,6.04,13.67,10.9,19.56,6.7,8.11,21.75,9.01,29.58,3.52,6.04-4.24,10.99-9.57,14.83-15.64,4.6-7.27-1.06-18.7-10.38-21.88-8.18-2.79-16.55-2.17-25-1.12-6.83,.85-9.68,4.8-10.52,11.08-.45,3.35-.84,6.64,0,10.01,1.05,4.23,3.31,5.11,6.54,2.51,2.76-2.22,3.35-5.5,4.45-8.53,.56-1.55,.17-3.61,2.72-3.63,4.24,4.65,2.87,12.14,7.24,17.74,5.95-4.95,6.36-12.12,9.07-18.1"/><path class="b" d="M81.88,82.65c-6.29-5.05-11.95-10.97-19.98-13.56-5.62-1.81-8.8-.74-10.46,4.57-.69,2.22-.84,4.64-1.03,6.98-.32,3.79-2.17,5.45-6.03,5.03-2.98-.33-6-.32-9-.54-2.52-.19-4.65,.62-5.42,3.04-.66,2.07,.06,4.33,1.46,5.93,3.13,3.58,7.75,4.42,11.94,6.09,2.62,1.05,6,.78,7.64,4.2-2.83,6.19-11.28,4.68-14.97,10.5,3.2,5.08,8.57,4.71,13.36,5.16,4.46,.42,8.99,.11,13.49,.08,2.4-.02,4.74,.02,6.59,2.11-2.86,4.73-8.69,4.09-12.59,6.9"/><path class="b" d="M246.88,45.65c-3.12-2.67-6.95-1.55-10.5-2.03-6.49-.88-13.33-3.4-19.41-.28-7.5,3.85-16.12,4.37-23.29,9.54-5.11,3.68-12.06,3.23-18.31,.78-3.53-1.39-6.7-.32-7.88,3.03-3.04,8.58-10.04,12.49-17.67,15.31-4.15,1.53-8.16,4.16-12.94,3.65"/><path class="b" d="M334.38,77.65c-1.66-5.46-2.8-11.02-5.9-16.06-4.16-6.75-10.34-10.28-17.62-11.31-20.22-2.87-40.53-5.09-60.98-5.61-.68-.02-1.5-.34-2,.49"/><path class="b" d="M309.88,61.15c-2.84,3.09-6.52,4.48-10.48,5.58-2.78,.77-5.51,2-7.99,3.47-6.46,3.84-8.09,11.81-3.48,17.91,5.18,6.86,12.11,11.66,19.97,15,5.62,2.39,7.42,1.37,8.97-4.46,.48-1.8,.81-3.63,1.28-5.75-7.32-3.19-16.94,.44-22.57-7.68,1.94-1.15,3.3-.09,4.82,.37,1.42,.44,3.14,.05,4.44,.65,1.41,.65,2.71,.3,4.04,.37,2.15,.12,4.07-.29,4.51-2.96,.4-2.44-1.16-3.29-3.01-4.01-1.67-.65-3.3-1.43-5.01-1.97-1.9-.6-4.3-.58-3.96-3.52,.23-2,4.29-4.52,6.47-3.97,2.67,.67,4.76,2.49,7,3.98,2.19,1.46,4.22,3.25,6.56,4.39,1.23,.6,2.98,1.45,4.5-.36,1.59-1.9-.01-3.5-.67-4.46-3.65-5.33-8.39-9.64-14.11-13.24,3.23-3.44,1.04-4.77-2.26-5.87-7.19-2.4-14.32-.42-21.51-.06-13.93,.69-27.58-.65-40-7.91"/><path class="b" d="M315.38,30.15c.56-3.24,2.66-6.09,2.48-9.5-.12-2.41-.54-4.76-2.48-6.5-2.57,.11-2.41,2.61-3.49,4.01-.88,1.13-1.56,2.43-2.53,3.47-3.54,3.83-6.21,3.47-9.01-.96-1.2-1.9-2.13-4.11-4.71-5.14-4.48,2.22-5.98,8.2-11.69,9.55-2.33-7.36,2.88-16-3.06-23.57-7.7,6.51-8.77,16.54-14.68,23.98-3.05-3.14-2.67-7.3-3.77-10.87-1.3-4.18-2.44-8.43-5.12-11.94-1.97-2.58-3.59-2.17-4.94,.97-1.99,4.62-1.92,9.68-3.02,14.49-.66,2.88-.65,6.07-3.41,8.36-5.08-2.9-6.63-8.18-9.57-12.36-1.72-2.46-3.18-5.12-5.05-7.46-2.16-2.69-4.86-2.5-7.45-.52-4.61,3.53-6.82,8.49-7.99,13.99-.58,2.73,.66,4.48,2.94,6.06,3.31,2.28,6.81,3.96,10.5,5.54,5.38,2.3,11.41,4.27,12.54,11.4"/><path class="b" d="M196.88,66.15c-6.97,3.28-14.22,5.45-22.05,5.49,4.57-4.64,10.56-6.38,16.56-6.86,15.97-1.28,31.99-1.23,47.99-.08,4.03,.29,8.09,.96,11.98,2.02,5.54,1.51,5.61,2.19,2.02,6.92"/><path class="b" d="M309.88,60.15c-7.58-5.73-15.95-1.98-21.42,2.59-7.3,6.11-12.59,13.52-11.11,23.91,.09,.63-.3,1.33-.47,2"/><path class="b" d="M321.38,42.65c6.22,.16,9.28,3.39,10.62,9.47,1.6,7.25,6.22,13.39,8.55,20.47,.52,1.59,.56,3.04,.82,4.56"/><path class="b" d="M234.38,44.15c.28,4.12-2.85,5.88-5.5,8.01-4.67,3.75-10.27,5.8-15.56,8.39-1.42,.7-2.85,.98-3.45,2.6"/><path class="b" d="M254.88,95.15c3.71-1.85,2.91-4.6,.94-6.95-3.09-3.69-7.42-5.61-11.94-7.05"/><path class="b" d="M301.88,35.15c4,.64,7.95-.73,10.86-2.71,4.24-2.88,7.8-.71,11.64-.24,1.47,.18,2.28,1.36,2,2.95-.48,2.74-6.29,7.3-9.49,7.5"/><path class="b" d="M250.88,74.65c-4.21,2.41-7.51,6.64-13,6.5"/><path class="b" d="M120.88,67.15c2.83,5.17,7.63,7.5,13,9"/></svg>