<?xml version="1.0" encoding="UTF-8"?><svg id="a" xmlns="http://www.w3.org/2000/svg" viewBox="0 0 603 335.23"><defs><style>.b{fill:none;stroke:#000;stroke-linecap:round;stroke-linejoin:round;stroke-width:2px;}</style></defs><path class="b" d="M457,300.67c-10.33,5.83-20.57,11.84-31.02,17.45-12.61,6.77-26.47,8.86-40.44,11.26-33.04,5.68-66.29,4.94-99.53,4.65-12.01-.11-24.07-1.34-35.98-2.98-16.03-2.22-32.19-4.3-47.47-9.99-5.12-1.91-9.94-4.88-14.49-7.96-7.2-4.87-14.34-9.69-23.06-11.4-1.64-.32-3.33-.5-5-.5-53-.03-106-.02-159-.02"/><path class="b" d="M181.5,267.17c-19.06-.09-37.81,2.11-55.98,8.06-5.23,1.71-10.94,3.06-13.64,9.07,4.08,6.5,11.01,8.47,17.66,9.68,11.04,2.02,22.29,2.91,33.47,4.17,9.66,1.09,19.32,2.11,29,2.98,5.82,.52,11.66,.86,17.5,1.01,16.33,.42,32.66,.85,49,1,45.83,.42,91.67,.87,137.5,.92,14,.02,28.01-1.13,42-1.96,3.86-.23,7.67-1.27,11.5-1.93"/><path class="b" d="M602,92.17c-15.25-.68-29.41-5.39-43.56-10.85-17.58-6.78-32.31-16.93-43.4-32.18-1.92-2.65-3.51-5.57-5.01-8.49-3.44-6.72-8.09-11.88-14.95-15.64-11.14-6.1-21.69-13.29-32.62-19.79-4.07-2.42-8.32-4.92-13.47-4.06-1,.17-2.15,.07-2.98,.54-11.94,6.68-25.86,9.14-37.02,17.46-2.46,1.83-4.96,3.63-7.06,5.17,.46,6,3.57,8.33,10.06,8.33"/><path class="b" d="M297,273.67c-6.08-4.23-12.15-8.45-18.94-13.17-1.65,4.79-4.16,9.62-4.9,14.7-1.75,12.11,4.9,17.91,13.39,21.87,8.56,3.98,17.65,3.65,26.97,2.28,9.56-1.41,19.31-1.54,28.98-2.15,8.25-.52,16.41-1.38,24-5.02,1.62-.78,3.22-1.6,4.82-2.41l-.05-1.33c-3.26-1.09-6.54-2.11-9.76-3.27-5.85-2.12-11.8-4.02-17.47-6.57-4.94-2.22-9.16-2.82-14.64-.65-8.92,3.53-18.38,3.97-27.41-.75-6.26-3.27-6.84-6.55-2-11.52,7.03-7.2,15.88-10.55,25.49-12.55,3.5-.73,7.08-1.89,7.51-6.44"/><path class="b" d="M403,268.17c.5-6.5,5.97-7.63,10.53-8.89,16.61-4.55,30.12,1.19,41.48,13.38,4.31,4.62,8.8,9.09,9.17,16.97-2.55,.51-5.1,1.17-7.68,1.49-2.81,.35-5.66,.34-8.49,.55-3.15,.23-5.97-.15-8.03-2.99-1.53-2.1-3.23-4.09-4.99-6.01-6.7-7.32-14.43-8.01-20.98-.01-1.2,1.47-2.37,2.97-3.87,4.85-4.72-3.87-9.49-7.78-14.54-11.92l4.88-7.69c-9.69-7.34-19.5-13.74-31.47-16.28-10.91-2.32-20.48,2.6-24.14,11.99-1.65,4.23-.76,7.44,1.67,10.52,4.79,6.07,12.51,9.4,19.46,8.46v-2.43"/><path class="b" d="M415.5,82.67c2.33,.83,4.62,2.15,7.01,2.39,3.96,.4,7.99,.18,11.99,.1,17.18-.38,32.72,5,46.94,14.11,9.65,6.18,18.51,13.57,28.11,19.82,11.77,7.68,24.56,12.91,38.95,13.08"/><path class="b" d="M450,299.17c17.18,.89,33.93-1.91,50.48-6.09,2.82-.71,5.62-2.22,7.96-3.99,4.07-3.07,3.77-6.39-.99-8.82-3.91-1.99-8.19-3.46-12.47-4.53-12.97-3.26-25.99-6.38-39.48-6.54-.83-.01-1.67,.31-2.5,.48"/><path class="b" d="M282.5,254.67c-6.72-1.79-13.57-2.48-20.91-2.91,7.75,6.17,11.8,14.11,8.99,22.77-1.83,5.65-2.18,12.99-8.18,16.56-8.8,.73-15.81-2.42-21.87-7.94-2.81-2.56-5.77-3.56-9.53-2.5-12.53,3.52-21.38-2.57-23.09-15.46-.3-2.26-1.3-5.31-3-6.36-11.48-7.09-23.24-13.73-35.75-21.01-.34,7.97,.25,13.58,6.12,18.63,4.2,3.61,6.19,9.75,9.24,14.72,3.29,5.36,6.23,11,10.09,15.93,6.34,8.12,14.98,12.02,25.4,12.13,7.52,.08,15.11,.91,21.98-3.09,2.98-1.74,5.69-3.96,8.53-5.96"/><path class="b" d="M445,67.67c3.83,2.83,7.35,6.31,11.55,8.39,18.04,8.93,36.13,17.77,54.49,26.01,15.54,6.97,29.32,15.76,37.93,30.78,8.72,1.29,16.96,2.5,26.16,3.85-5.76,4.92-11.5,4.33-20.63-1.03"/><path class="b" d="M455.5,49.17c-4.16-2.51-8.19-4.17-13.55-3.3-3.58,.58-7.67-1.53-11.44-2.73-8.53-2.72-17.01-5.63-26.66-8.85-4.27,11.6-8.68,23.2-12.8,34.9-1.83,5.22-3.25,10.6-4.46,16-.45,2.03-.62,5.14,.54,6.34,6.08,6.26,27.37,16.26,38.86,13.14,2.93-4.78,7.97-8.51,7.74-16.14-2.84,4.39-5.57,7.57-5.24,12.14"/><path class="b" d="M284.5,253.17c4.42-7.05,8.84-14.1,13.22-21.09-5.67-1.89-9.77-.79-13.2,4.11-6.51,9.29-15.49,9.75-26.51,5.94-1.1-.38-1.98-1.35-3.02-1.95-5.98-3.46-12.13-5.74-19.13-2.29,6.16,7.36,14.87,9.86,23.63,12.31,.9,.25,1.68,.97,2.51,1.47"/><path class="b" d="M368.5,246.67c2,1.17,3.94,2.46,6.01,3.47,3.28,1.61,6.74,2.87,9.97,4.57,4.55,2.39,8.1,2.21,11.48-1.58,4.7-5.27,8.15-11.26,9.08-18.46,.09-.7,.64-1.33,1.55-3.12-3.13,.24-5.75-.03-8.05,.7-7.74,2.45-15.47,4.98-22.97,8.06-2.7,1.11-4.73,3.86-7.06,5.86"/><path class="b" d="M425.5,105.17c.34,7.22-2.26,13.56-6.08,19.45-.57,.88-2.23,1.41-3.42,1.5-14.12,1-27.62-2.94-36.92-14.99-.68-6.1,1.69-11.88,4.43-16.98,6.63,3.41,12.88,7.17,19.55,9.9,5.88,2.4,12.23,3.64,19.36,5.67-1.08,3.63-1.9,7.71-3.55,11.41-1.02,2.28-3.52,3.49-6.37,3.07-3.66-.54-7.32-1.14-11-1.45-1.81-.15-3.66,.28-5.5,.44"/><path class="b" d="M185.5,269.67c6.67,5.5,13.44,10.88,19.97,16.53,7.82,6.76,16.7,10.04,27.02,8.92,2.06-.22,4.05-1.11,6.32-1.76,1.04-5.93-.32-11.39-2.36-16.67-1.74-4.5-2.17-8.74,.52-13.03,2.54-4.06,6.53-6.3,10.52-5.47,4.85,1.01,6.01,5.41,6.3,9,.6,7.45,.98,15.14-3.29,21.98"/><path class="b" d="M251.5,251.17c-12.06-5.57-24.12-11.13-35.87-16.55-2.19,1.29-3.67,2.16-5.66,3.34-.32,11.38,5.99,19.48,13.8,26.97h5.82c3.93-8.45,11.61-12.06,20.91-12.68,3.64-.25,7.33,.27,11,.43"/><path class="b" d="M406.5,35.67c6.33,6,14.64,7.88,22.54,10.37,4.44,1.4,9.3,1.43,13.96,2.15,1.71,.26,3.39,.74,5.2,1.14-3,5.67-5.07,11.16-4.12,16.34,14.27,7.87,28.38,3.5,42.41,1.93,.29-.03,.44-1.22,1.12-3.25-3,1.19-5.06,2.01-7.11,2.83"/><path class="b" d="M415,298.17c-6.93,4.38-14.49,3.17-22,2.5-2.16-.19-4.41-.02-6.49-.56-7.18-1.86-10.73-7.32-12.42-13.97-1.15-4.54-1-9.43-2.23-13.94-1-3.68-2.98-7.17-4.94-10.49-1.37-2.32-3.45-4.22-4.97-7.54,2.02,0,4.34-.66,5.99,.11,6.81,3.18,13.81,6.16,19.36,11.72-2.2,3.72-4.26,7.19-6.31,10.66-3.56,6.03-2.37,10.25,3.46,14.55,5.13,3.79,11.11,4.73,17.05,5.91,3.46,.69,6.99,1.03,10.49,1.53"/><path class="b" d="M331,251.67c3.2-.4,6.4-.8,9.6-1.2,.02-.35,.04-.7,.07-1.05,1.5,1.01,2.99,2.01,4.36,2.94-1.15,7.32-4.63,13.11-10.59,16.69-7.56,4.54-16.02,7.08-24.93,7.01-3.67-.03-7.33-1.23-11-1.89"/><path class="b" d="M279.5,259.67c1.43-2.05,2.87-4.09,4.3-6.14l.34,.97c3.83-.67,7.67-1.33,12.27-2.13,.71,.85,2.02,2.71,3.62,4.27,2.08,2.03,4.48,2.04,6.97,.54,6.23-3.75,8.62-13.03,4.99-19.51-6.9-.93-7.75-.49-11.01,5.49-1.11,2.03-2.35,3.99-3.48,6.01-.43,.77-.72,1.62-1.43,2.08-2.25-9.47-.15-15.55,6.45-19.02,6.88-3.62,17.24-2.91,22.39,1.52,3,2.59,6.72,5.08,6.57,9.92"/><path class="b" d="M379.5,147.67l3.28,1.97c.61-1.28,1.09-2.29,2.21-4.65-2.73,.31-4.96-.09-5.85,.82-1.24,1.27-2.43,3.83-1.96,5.3,1.31,4.16,3.7,7.98,5.26,12.08,1.75,4.57,3.36,9.24,4.48,14,1.39,5.91-.86,10.13-6.91,12.02-.75,.23-1.34,.97-1.71,1.24-1.9-2.57-3.8-5.14-6.66-9.02-1.63,3.03-3.86,5.29-3.41,6.67,1.45,4.42,5.46,2.87,9.16,3.06,3.39,6.86,.88,14.49,.58,22.01-.15,3.67-.56,7.34-.99,11-.6,5.17-1.32,10.34-1.98,15.5"/><path class="b" d="M268.5,277.17c-.17-2-.54-4.01-.46-6,.21-5.14-1.18-9.22-6.54-11-5.97,2.77-6.58,4.18-4.42,12.98,.68,2.79,1.98,5.52,3.51,7.97,1.27,2.03,3.49,2.77,5.92,1.55"/><path class="b" d="M450.5,268.67c-11.17,.33-22.33,.74-33.5,.96-4,.08-8-.29-12-.46"/><path class="b" d="M466,53.17c-3-1.17-5.93-2.91-9.03-3.29-2.03-.25-5.13,.85-6.3,2.42-2.5,3.35-4.33,7.33-3.38,12.47,5.16,.48,10.21,.76,15.2,1.46,3.71,.53,7.34,1.61,11.01,2.44"/><path class="b" d="M365.5,279.67c-1.5-4.67-2.7-9.46-4.64-13.94-.87-2.01-3.2-3.4-4.65-4.84-6.47,2.57-7.75,5.76-5.22,11.29,4.16,9.11,8.67,9,18,6.96,1.06-.23,2.01-.96,3.01-1.46"/><path class="b" d="M463.5,30.67c-3.5-.5-7.07-.72-10.49-1.55-10.33-2.51-19.15-.13-26.51,7.55"/><path class="b" d="M449,298.67c-8.83,.17-17.68,.15-26.5,.58-3.92,.19-6.51-1.18-9.07-4.03-7.17-7.98-15.08-15.17-24.48-20.49-1.73-.98-3.96-1.07-5.96-1.57"/><path class="b" d="M443.5,66.17c-9.64-1.88-19.28-3.55-29-.5"/><path class="b" d="M414,67.67c3.5,.5,7.02,.91,10.5,1.52,4.17,.74,3.55,4.07,3.48,6.98-.07,2.87-1,5.04-4.48,5.05-1,0-1.98,.81-3,.92-7.99,.82-13.06-2.13-11.51-12.36,1.55-1.24,3.03-2.43,4.52-3.61"/><path class="b" d="M370.5,242.17c-8.83,2.5-17.67,4.99-26.49,7.53-.24,.07-.34,.63-.51,.97"/><path class="b" d="M392,126.17c1,2.16,1.99,4.31,3.24,7,2.47-2.85,2.3-4.9,.21-5.88-1.91-.89-4.49-1.53-6.41-.98-6.56,1.87-11.9,12.11-10.54,19.36"/><path class="b" d="M339.5,249.67c-5.5-4.17-10.88-8.51-16.57-12.39-1.61-1.1-4.13-.88-7.52-1.5,.69,4.27,.82,7.18,1.68,9.86,1,3.12,3.31,4.8,6.92,4.62,1.47-.07,3,.91,4.5,1.41"/><path class="b" d="M446,20.17l.89-2.3c.31,.45,.63,.91,.94,1.36-6.53,3.67-13.33,6.5-21.33,5.44"/><path class="b" d="M445.5,21.17c4.33,2,8.68,3.98,13,6.01,4.91,2.31,9.22,5.3,11.5,10.49"/><path class="b" d="M412.5,33.67c11.37,1.62,21.7,6.26,32,11"/><path class="b" d="M263,253.17c4.83,2.17,9.67,4.33,14.5,6.5"/><path class="b" d="M425.5,26.17c-3.59,3.6-8.32,4.5-13,5.5"/><path class="b" d="M216.5,238.67c3.63,2.14,7.26,4.27,10.89,6.41l-.75,1.13c-5.7-1.19-9.65-5.03-13.15-9.53"/><path class="b" d="M410,19.67c-.16,4.53-4.24,5.4-7,7.5"/><path class="b" d="M382,272.67c-3,1.67-6,3.33-9,5"/></svg>