<?xml version="1.0" encoding="UTF-8"?><svg id="a" xmlns="http://www.w3.org/2000/svg" viewBox="0 0 1313.69 929.48"><defs><style>.b{fill:none;stroke:#000;stroke-linecap:round;stroke-linejoin:round;stroke-width:2px;}</style></defs><path class="b" d="M626.19,558.98c1.46,1.44,1.01,3.29,.98,5-.13,8.5-.34,17-.48,25.5-.21,13.67,.2,27.34,.29,41,.09,12.97-.84,26.06,2.06,39.03,3.48,15.5,11.5,25.82,30.15,28.94,11.62,1.94,23.33,1.16,34.99,.47,13.01-.77,26.01-1.91,39-2.95,21.74-1.75,43.37-4.07,64.52-9.92,26.29-7.27,46.7-22.23,61.49-45.06,11.48-17.72,19.78-36.96,27.51-56.5,5.3-13.41,10.18-26.97,13.43-41.02,3.81-16.43,5.81-33.13,3.97-49.98-2.24-20.55-8.62-39.45-25.97-52.44-19.62-14.68-40.6-12.75-61.4-2.96-15.01,7.06-26.82,18.43-37.54,30.9-14.79,17.18-24.87,37.2-34.55,57.47-5.05,10.58-11.34,20.37-20.46,28.01-9.73,8.16-20.92,11.03-33.5,9.55-16.74-1.97-32.4-7.57-48.01-13.51-4.8-1.83-9.69-3.52-14.99-3.03"/><path class="b" d="M1312.69,928.48c-24-.17-48.01-.08-72-.57-25-.51-50-.22-75-.46-15.67-.15-31.33-.69-47-.94-8.33-.13-16.67,.01-25-.03-28.33-.15-56.68,.04-85-.61-23.51-.54-47-.35-70.5-.3-17.27,.03-29.34-7.57-37.57-22.54-9.14-16.62-13.05-34.81-16.91-53.04-4.56-21.56-7.63-43.47-14.56-64.48-4.47-13.53-10.29-26.23-24.47-32.5-7.47-3.31-15.42-4.55-23.5-4.98-6.16-.33-12.33-.36-18.5-.54-1.4-.04-2.92,.34-4-1"/><path class="b" d="M3.69,917.48c1.17,.17,2.33,.47,3.5,.48,23.5,.19,47,.38,70.5,.51,32.33,.19,64.67-.03,97,.63,24.01,.49,48.01-.17,72,.45,23,.6,46.01-.12,69,.52,24.51,.68,49,.14,73.5,.39,21.83,.22,43.68-.01,65.5,.61,24.67,.7,49.34-.13,74,.51,12.51,.32,25,.45,37.5,.34,11.75-.1,22.79-2.54,32.57-9.85,7.6-5.68,12.46-13.15,15.86-21.62,5.59-13.91,7.12-28.66,7.51-43.47,.53-20.56-1.09-41.03-2.86-61.5-1.38-15.97-2.09-31.99-3.07-47.99-.22-3.59-.04-7.04,4.83-8.2,4.45,6.52,11.86,6.89,18.67,8.12,24.95,4.5,50.19,5.94,75.48,7.24,12.17,.63,24.36,1.17,36.51,1.09,7.8-.05,15.66-.76,23.5-.72,4.5,.02,9.03,.07,13.49,.54,5,.53,9.71-1.73,14.5-1.44,12.19,.74,24.49-.48,36.56,3.2,8.45,2.58,10.66-1.05,10.58-11.82-.1-13.49-.75-26.99,.75-40.51,1.61-14.55,6.31-28.03,12.69-40.95,10.27-20.8,21.72-41.02,29.5-63.01,7.07-19.99,11.31-40.56,13.94-61.52,1.42-11.29,2.06-22.62,2.01-34-.11-23.21-4.42-45.48-14.52-66.5-.97-2.01-4.06-3.92-.08-6.15,.32-.18-.43-2.57-.95-3.83-.87-2.12-.68-3.93,1.03-5.51"/><path class="b" d="M455.19,254.98c-.5,9.56-4.36,18.2-7.56,26.98-5.06,13.92-10.43,27.83-12.27,42.54-2.09,16.68,2.93,30.72,17.78,40.56,18.34,12.14,38.03,21.53,58.03,30.47,27.84,12.44,56.29,23.3,85.02,33.44,8.3,2.93,16.95,5.04,24.92,8.69,8.46,3.87,15.24,1.22,22.05-3.22,1.46-.96,2.51-2.56,4.53-2.45"/><path class="b" d="M915.69,217.48c-.84-.91-1.7-1.8-3-2-5.05-.77-9.2-3.06-12.53-6.98-1.12-1.32-2.16-3.15-4.53-2.46-1.18,1.3-.05,2.48,.62,3.39,.99,1.34,2.08,2.57,3,4.01,5.34,8.35,12.77,12.86,22.93,13.7,8.83,.73,17.59,2.71,26.5,1.72,1.92-.21,4.77-.11,5.47-2.9,.62-2.47-.74-4.31-2.44-6.01-4.39-4.39-9.6-7.69-15.06-10.4-11.91-5.92-19.83-14.98-25.66-26.98-8-16.47-16.77-32.78-30.38-45.5-8.45-7.89-17.62-14.97-24.96-24.05-4.32-5.34-8.46-10.83-12.86-16.12-14.67-17.64-33.7-28.65-54.63-36.83-4.24-1.66-8.92-2.51-13.47-3.01-10.98-1.21-19.19,5.27-20.36,16.93-1.5,14.97-2.11,30.03,.79,45,.71,3.69,1.94,7.08,5.61,7.82,3.89,.79,7.25-1.13,10.02-4.29,6.22-7.09,7.18-16.42,10.92-24.56,1.34-2.92,2.36-5.99,3.53-8.99"/><path class="b" d="M457.19,250.48c-1.83-2.23-.63-5.04-1.44-7.52-2.17-6.64-7.58-10.38-12.57-14.46-34.41-28.11-71.12-53.18-106.44-80.08-15.47-11.78-31.41-22.98-45.57-36.41-6.05-5.74-11.15-12.21-14.86-19.59-2.46-4.9-6.01-6.6-11.11-6.47-10.52,.28-20.78,2.55-30.96,4.71-10.62,2.25-21.29,3.69-32.05,4.76-2.26,.22-4.01,.95-5.6,2.14,.25,2.94,2.64,2.93,4.12,3.91,1.95,1.29,4.91,1.5,4.55,5.02-.15,1.41,1.43,1.53,2.44,2.01,2.35,1.12,4.9,2.02,6.96,3.55,5.46,4.04,8.22,9.56,8.04,16.44"/><path class="b" d="M220.69,141.98c.85-1.63,2.75-1.11,4.08-1.86,1.59-.89,1.46-1.93,1.39-3.14-.08-1.49-.99-2.4-2.48-2.49-3.66-.21-7.35-.65-10.99-.44-4.39,.25-5.96,3.8-3.49,7.41,2.87,4.2,6.93,6.79,11.99,6.92,4.58,.12,8.55,1.57,12.51,3.57,2.59,1.31,5.37,2.25,7.97,3.55,3.6,1.8,6.14,1.4,9.68-1.31,6.18-4.74,8.37-5.49,16.45-1.44,21.03,10.55,37.49,26.43,53.98,42.63,17.31,17,31.19,36.81,46.94,55.07,7.47,8.67,15.22,17.11,22.99,25.51,10.25,11.08,20.57,22.09,31.01,32.99,5.65,5.9,9.66,5.19,12.39-2.5,4.94-13.9,9.62-27.91,13.95-42.01,1.37-4.47,3.51-8.34,6.2-11.9,2.74-3.64,7.04-2.59,10.38-1.43,11.16,3.85,21.68,9.22,32.05,14.86,16.14,8.77,30.31,20.55,45.99,30.01,21.47,12.95,44.41,22.62,67.96,31.09,19.09,6.87,38.39,12.97,58.06,17.8,17.23,4.23,34.69,5.65,52.51,2.87,6.44-1,14.41-2.74,18.96,5.24"/><path class="b" d="M894.69,408.98c4.15-2.94,4.94-7.89,5.28-12.02,1.53-18.41,0-36.51-8.26-53.5-1.34-2.75-3.02-5.3-5.1-7.42-2.63-2.68-5.96-4.41-9.92-3.05-11.4,3.94-13.69,3.09-20.54-7-5.67-8.35-7.92-17.43-8.14-27.52-.22-10.16-.32-19.98,4.06-29.55,3.57-7.81,4.1-16.04,1.23-24.49-1.38-4.07-3.39-7.84-4.2-12.35-.69-3.84-6.16-7.1-9.97-10.04-8.03-6.17-16.98-10.85-25.87-15.71-12.17-6.65-23.03-15.32-33.63-24.3-8.29-7.02-17.27-13.12-27.95-16.04-8.91-2.44-16.93-1.35-23.53,5.95-6.39,7.06-9.04,15.84-11.97,24.53-1.7,5.04-3.63,9.91-6.35,14.59-2.47,4.25-5.66,7.27-9.62,9.96-9.23,6.28-10.29,11.4-4.5,20.93,2.31,3.81,2.24,7.95,1.82,12-.17,1.67-.33,3.36-.31,5.01,.07,5.48,2.5,8.08,7.96,8.47,2.82,.2,5.66,.04,8.5,.04,1.17,0,2.41-.26,3.48,.05,2.39,.71,5.32,1.58,5.36,4.45,.03,2.49-2.84,3.27-4.86,3.94-6.06,2.01-12.06,.86-17.83-1.05-1.6,1.26-2.4,2.82-2.11,4.61,1.41,8.8-1.98,16.79-4.08,24.99-.69,2.69-.53,5.36-.39,8.01,.2,3.87,2.97,5.47,6.44,5.99,9.35,1.4,18.7,.18,27.99-.59,13.96-1.17,27.8-3.38,41.52-6.35,12-2.6,21.45-9.13,29.46-18.07,1.63-1.82,2.88-3.99,5.28-4.97"/><path class="b" d="M234.69,343.48c2.68-8.97-1.01-15.74-7.51-21.49-7.98-7.07-16.71-12.42-27.46-14.66-11.26-2.34-21.36,.41-29.88,6.84-13.21,9.97-21.4,23.75-23.5,40.32-1.35,10.64,1.15,20.49,10.88,26.95,3.73,2.47,8.19,3.32,12.47,2.93,12.78-1.17,24.69-5.45,36-11.41,3.89-2.05,7.91-3.99,11.46-6.55,6.86-4.96,13.5-10.27,15.05-19.43"/><path class="b" d="M435.69,476.48c-.52,4.49,2.23,6.22,6,6.99,7.91,1.63,15.96,2.04,24,2.51,11.19,.66,22.37,1.31,33.01,5.46,7.58,2.96,13.68,7.68,17.96,14.55,11.44,18.38,23.76,36.17,36.08,53.95,14.43,20.83,29.25,41.39,43.99,62.01,1.42,1.99,3.46,3.54,5.09,5.16,2.56-.87,3.1-3.07,4.37-4.63"/><path class="b" d="M255.19,150.98c-.78-3.83-3.13-5.88-7-6.25-1.91-.18-3.42-.89-5.09-2.13-5.78-4.3-11.96-8.05-17.88-12.17-1.14-.79-2.18-2.12-3.51-1.39-7.19,3.93-13.04-.46-19-3.11-19.66-8.74-37.63-20.45-54.96-33.03-19.77-14.35-39.99-28.11-59.05-43.43-2.11-1.7-4.11-3.55-5.99-5.5-4.14-4.29-3.29-10.71,2.01-13.43,6.77-3.48,10.33-9.56,12.84-16.1,2.73-7.13-1.46-11.69-9.87-12.89-14.93-2.13-28.86,2.22-41.91,8.61-13.79,6.75-26.5,15.43-37.07,26.84-1.93,2.08-4.16,4.09-5.38,6.55-1.25,2.51-3.51,5.34-1.58,8.4,1.88,2.97,4.79,4.41,8.44,4.58,8.15,.39,16.12-.77,23.99-2.59,8.54-1.97,17.02-4.27,25.51-6.46,6-1.55,11.32-4.2,15.56-8.94,1.38-1.55,2.41-3.8,4.94-4.05"/><path class="b" d="M625.19,547.98c-20.27-27.97-44.18-52.69-69.12-76.38-17.54-16.67-37.81-29.96-58.42-42.56-10.63-6.5-21.58-12.48-32.48-18.52-6.64-3.68-13.85-5.22-21.48-5.11-2.81,.04-5.05,.52-6.5,3.07"/><path class="b" d="M846.19,288.98c-2.33,8.37-2.01,16.95-1.98,25.5,.01,3,.22,6.01,.49,9,.69,7.49,4.25,13.29,10.47,17.52,2.07,1.4,4.14,2.85,5.98,4.52,3.35,3.03,3.6,5.76,.49,8.93-5.47,5.58-11.99,9.44-19.42,12.14-12.84,4.65-26.28,6.33-39.54,8.87-20.82,3.98-40.79,9.88-58.03,22.98-9.73,7.4-16.79,17.24-24.91,26.1-4.82,5.26-10.21,9.41-17.08,11.39-1.89,.54-4.13,.94-5.96,.46-6.09-1.59-11.29,.64-16.53,3.1"/><path class="b" d="M863.69,178.98c-4.8,.19-7.88-3.33-11.46-5.56-19.86-12.36-39.94-24.35-60.56-35.4-20.35-10.91-33.27-7.63-50.41,5.55-4.82,3.71-9.89,7.43-13.06,12.91-2.49,4.3-4.11,8.66-.01,12.99"/><path class="b" d="M867.19,378.98c-5.48,4.66-11.82,6.5-18.96,7.72-20.41,3.48-39.94,10.04-58.56,19.24-10.56,5.22-21.28,10.1-32,14.99-2.52,1.15-5.26,2.03-7.99,2.49-8.31,1.38-11.24-.96-13.09-9.42-.4-1.83,.12-4.07-1.65-5.52"/><path class="b" d="M756.69,743.48c-4.82-2.3-10.05-1.14-15.01-1.33-25.58-.96-51.1-2.58-76.47-5.82-9.95-1.27-19.63-4.52-29.54-6.2-4.34-.73-8.97-2.5-13.47-.16"/><path class="b" d="M233.19,346.48c1.85,5.99,6.41,9.34,11.46,12.56,20.79,13.26,40.37,28.28,60.52,42.46,13.95,9.82,27.9,19.65,42.55,28.42,1.95,1.17,4,2.21,6.44,2.71,3.55,.72,4.72-1.25,4.39-3.63-.69-5.04-1.8-10.34-7.38-12.48-16.39-6.29-30.64-16.24-44.98-26.05-16.98-11.62-33.01-24.61-50.52-35.48-5.78-3.59-11.62-7.08-17.51-10.48-2.11-1.21-4.17-.96-5.48,1.46"/><path class="b" d="M87.69,30.48c8.33,10.47,19.76,17.31,30.08,25.4,11.25,8.82,22.5,17.64,34.37,25.67,13.03,8.81,27.27,15.15,41.6,21.31,4.29,1.84,8.61,4.34,14.05,2.37,2.09-.76,5.21,1.53,7.91,2.22,12.49,3.18,25.14,4.38,38,3.08,1.12-.11,2.33,.61,3.49,.94"/><path class="b" d="M654.19,423.98c-.41-1.17-.71-2.17-.05-3.53,5.56-11.41,10.31-23.29,19.57-32.46,1.62-1.6,3.32-4.55,5.87-2.39,2.16,1.83,.84,4.45-.32,6.9-6.03,12.68-13.97,23.69-25.5,32.05-5.01,3.64-5.83,10.04-8.03,15.43-6.55,16.06-9.49,33.06-12.46,50-3.16,18.01-5.3,36.16-5.57,54.49-.01,.83,.35,1.96-.06,2.45-2.77,3.35-2.25,7.2-1.94,11.05"/><path class="b" d="M731.19,171.48c4.65,2.72,9.94,3.49,14.99,5.03,20.9,6.36,39.54,17.02,57.03,29.94,11.05,8.16,22.29,16.07,33.51,23.98,1.24,.87,2.93,1.32,4.47,1.5,8.38,.98,13.79,5.08,17.72,12.93,5.18,10.37,8.7,21.22,12.28,32.11,1.36,4.14,2.65,8.33,6.75,11.16,5.42-2.7,7.46-8.14,9.68-13.19,7.32-16.66,14.25-33.5,23.06-49.47"/><path class="b" d="M806.69,281.48c7.87-10.75,11.4-26.63,6.68-31.85-6.47,4.7-7.55,11.82-8.04,18.86-.28,4.1-1.2,8.46,.85,12.5,.1,.2,.1,.53,0,.74-3.13,6.82-.47,14.23-2.37,21.29-3.26,12.1-11.95,17.24-23.13,19.41-8.44,1.64-17.04,2.48-25.48,4.12-10.91,2.12-14.45,7.01-12.38,17.91,1.29,6.76-1.96,12.18-3.74,17.99-3.3,10.78-7.51,21.28-10.82,32.05-4.17,13.55-11.38,24.5-24.04,31.53-4.2,2.33-8.03,5.32-11.03,9.19"/><path class="b" d="M625.19,558.98c-2.74,5.88-3.67,12.3-4.83,18.53-1.74,9.35-4.87,18.14-8.08,27-1.81,4.99-3.52,10.24-3.95,15.48-1.37,16.72-7.39,32.47-9.69,48.98-.97,6.99-.53,8.22,6.06,10.49,2.64,.91,5.41,1.49,7.98,2.55,8.91,3.65,11.03,5.02,9.04,15.97-1.12,6.14-1.91,12.35-3.06,18.49-.82,4.38-.81,8.56,1.54,12.51"/><path class="b" d="M443.69,413.98c-3.64-4.99-9.06-6.16-14.48-5.37-11.9,1.74-23.65,4.46-35.53,6.28-8.43,1.29-16.99,1.75-25.49,2.59-4.09,.41-8.04,1.15-10.5,5"/><path class="b" d="M854.69,265.48c4.49-.13,5.95,3.21,7.51,6.5,4.21,8.9,5.44,18.64,7.95,28.02,1.9,7.11,3.69,14.27,4.92,21.51,.66,3.86,1.23,8.37-4.36,10.02-3.87,1.14-3.47,4.68-2.91,7.43,1.14,5.57,2.89,11.02,4.39,16.52,5.02,18.38,12.48,35.71,21.34,52.58,5.56,10.58,13.54,19.44,19.34,29.82,2.03,3.62,2.4,7.61,4.32,11.1"/><path class="b" d="M743.19,354.98c2.62,4.44,.37,8.84-.64,12.97-2.58,10.58-4.38,21.26-6.04,32.01-.28,1.81,.9,2.48,.93,3.78"/><path class="b" d="M385.69,448.98c-1.16,4.36,2.11,5.63,5.01,6.98,9.16,4.26,18.52,3.37,28,1.09,3.41-.82,6.65-3.4,10.48-1.57"/><path class="b" d="M624.19,552.98c-4.47,1.52-3.54,5.93-4.35,9.04-2.58,9.89-4.57,19.94-6.58,29.98-.38,1.89-.91,4.08,.42,5.98"/><path class="b" d="M841.69,232.48c-.26,3.06,2.75,3.95,4.1,5.93,8.58,12.63,1.56,24.05-9.1,30.06-.32,.18-.65,.38-1,.5-4,1.33-8,3.49-12,0-3.95-3.45-3.18-7.95-1.9-11.96,3.06-9.55,8.98-17.57,14.89-25.53"/><path class="b" d="M359.19,428.98c11.51,3.99,23.53,4.28,35.5,4.99,3.68,.22,7.26,1.16,11,1.1,2.88-.04,3.41,2.87,4.5,4.91"/><path class="b" d="M867.69,375.48c-3.58-6.42-3.46-9.44,.5-13.5,2.96,3.54,3.47,7.93,.94,11.96-1.49,2.37-1.48,3.86-.12,6.62,6.88,13.99,15.52,27.05,21.77,41.37,.28,.64,.56,2.06,1.91,2.04"/><path class="b" d="M267.69,109.48c-1-.17-2.01-.28-3-.51-4.16-.99-6.2,.06-7.48,4.02-.47,1.46-.81,2.98-1,4.5-.75,6.04-2.32,7.06-7.51,4.47-3.73-1.87-7.26-4.17-11.04-5.93-5.35-2.49-12.12-.88-15.98,3.45"/><path class="b" d="M828.19,113.98c-1.19,6.39-4.76,11.94-7.82,17.32-3.41,5.98-2.55,9.72,1.17,14.79,3.92,5.34,8.84,8.82,14.66,11.37,4.69,2.05,8.27,1.87,12.26-2.75,3.42-3.96,6.93-7.83,9.64-12.29,1-1.65,2.37-3.94-.15-6.17-6.15,3.22-8.55,9.17-10.68,15.25-.22,.64,.59,1.64,.93,2.47"/><path class="b" d="M446.69,448.98c-6.64-.37-12.09,2.71-16.9,6.62-2.67,2.17-4.75,4.89-8.03,6.52-2.21,1.1-3.9,3.43-5.08,5.85-2.05,4.22,.27,9.01,5.01,9.43,6.52,.58,12.93-.09,17.96-4.96,2.71-2.62,5.72-4.73,9.03-6.47"/><path class="b" d="M792.69,126.48c2.06,3.66,4.11,7.3,7.48,10.02,5.07,4.09,10.45,5.38,16.52,2.48"/><path class="b" d="M365.19,431.98c-1.06,1.73-3.63,1.52-4.43,4.03,.38,3.06,3.45,4.61,6,5.83,5.84,2.81,11.92,5.28,18.44,6.09,3.99,.5,7.27-2.28,11-2.9,6.08-1.02,11.27-5.01,18.02-4.39,2.66,.24,6.45-1.65,8.98-4.15,3.45-3.42,7.85-4.76,12.49-5.51"/><path class="b" d="M804.19,101.73c-4.23,6.13-7.08,13.03-9.77,19.84-1.71,4.34-4.06,6.27-8.23,6.91-4.53,.7-7.49-1.74-9.98-5.02-.8-1.06-1.35-2.32-2.02-3.48"/><path class="b" d="M870.19,183.48c.33,.83,.42,2,1.04,2.45,7.02,5.09,13.53,10.73,19.5,17.02,.24,.25,.97,.03,1.58,.03,.68-1.45,.64-2.69-.57-4.04-1.19-1.33-2.01-2.98-3.05-4.46-5.21-7.46-3.09-14.76,.52-21.99,.87-1.73,1.98-3.34,2.98-5.01"/><path class="b" d="M895.19,423.48c4.5,5.5,8.89,11.1,13.56,16.45,1.68,1.92,3.17,4.31,5.94,5.05"/><path class="b" d="M847.69,157.48c3.96,8.65,11.26,14.77,17.22,21.81,4.69,5.54,12.25,5.48,19.28,4.69"/><path class="b" d="M423.69,434.48c-5.33-.68-10.67-.88-16,0"/><path class="b" d="M226.69,138.98c3.56,1.29,7.21,1.88,11,1.5"/><path class="b" d="M931.69,214.98c-2.33,.17-4.67,.47-7,.47-7.16,.02-9.28,1.38-12,9.03"/></svg>