<?xml version="1.0" encoding="UTF-8"?><svg id="a" xmlns="http://www.w3.org/2000/svg" viewBox="0 0 1400 980"><defs><style>.b{fill:none;stroke:#000;stroke-linecap:round;stroke-linejoin:round;stroke-width:2px;}</style></defs><path class="b" d="M1390.5,946.5c-3.5,0-7,0-10.5,0-50.5,.16-101,.32-151.5,.5-41.5,.15-83,.33-124.5,.5-39,.16-78,.39-117,.47-13,.03-26-.28-39-.48-7.58-.12-10.49-5.52-13.02-11.48-5.3-12.48-6.9-25.75-8.45-39.01-1.72-14.78-2.76-29.62-3.64-44.49-.68-11.51-1.05-23.08-2.89-34.51-1.35-8.34-5.95-8.57-11-5.01-7.82,5.52-15.57,11.14-23.52,16.46-6.8,4.56-9.79,3.51-15.04-2.91-10.94-13.35-20.68-27.52-29.94-42.05-.86-1.35-2.13-2.35-3.1-3.68-3.05-4.19-3.7-8.98-4.39-13.83"/><path class="b" d="M951,442c10.14,14.55,17.58,30.12,20.09,47.99,3.99,28.41,4.34,56.96,3.77,85.51-.42,21.03-1.76,42.04-3.69,63.02-1.58,17.24-3.63,34.4-6.31,51.46-2.79,17.73-6.63,35.29-11.8,52.54-4.39,14.63-9.52,28.89-17.52,42-2.26,3.7-4.39,7.42-7.51,10.5-2.5,2.46-4.41,1.89-6.57-.49-1.75-1.93-2.68-4.09-3.52-6.52-5.04-14.61-7.09-29.81-8.89-45.03-1.91-16.14-3.61-32.31-4.98-48.5-1.17-13.8-1.85-27.66-2.54-41.5-.95-18.99-1.8-37.99-2.49-57-.51-13.83-.77-27.66-1.01-41.5-.14-8.36-.02-16.71-1.43-25.02-.32-1.89,.8-3.98,.87-5.98,.56-16.33,.75-32.68,1.62-48.99,.75-14.11,.42-28.14-2.18-41.99-2.36-12.56-6.37-24.5-16.89-33.03-7.02-5.69-15.58-7.01-24.02-8.43-20.45-3.44-41.09-5.95-60.97-12.14-8.74-2.72-16.05-1.16-22.52,5.09-1.53,1.47-3,3-4.5,4.5-.67,.67-1.26,1.82-2.01,1.93-11.49,1.72-17.2,11.92-25.96,17.62-6.51,4.24-12.45,9.37-19.1,13.34-8.1,4.83-17.27,7.44-25.93,11.11-11.8,5-24.21,8.03-36.47,11.61-12.04,3.52-23.26,8.97-30.48,19.93-6.4,9.71-6.51,20.85-6.04,31.96,.42,10,.99,20,1.48,30,1,20.17,2.02,40.33,2.99,60.5,.26,5.33,.41,10.66,.5,16,.36,19.83,.69,39.67,.98,59.5,.03,1.83-.31,3.67-.47,5.5"/><path class="b" d="M502.75,851c-3.34-1.87-3.52-5.46-4.17-8.52-3.7-17.27-3.58-34.62-.55-51.98,.54-3.09,1.51-4.48,4.33-7.37,4.31,4.56,4.5,10.39,4.51,15.87,.01,8.33-.84,16.67-1.37,25-.47,7.34-1.14,14.66-1.47,22-.94,21.1-1.62,42.27-6.16,62.97-2.56,11.62-6.04,23.05-14.79,32.1-6.43,6.65-14.2,9.68-23.07,9.87-18.33,.39-36.68,.06-55,.67-15.34,.52-30.68-.05-46,.44-22.66,.73-45.34,.66-68,1.05-22.17,.39-44.33,.62-66.5,.99-22.83,.38-45.67,.63-68.5,.99-24.17,.38-48.33,.64-72.5,1.01-22.33,.35-44.66,.93-67,.9"/><path class="b" d="M787,139.5c-1.36,3.59,.06,6.7,2.04,9.47,3.77,5.28,5.42,11.1,5.53,17.53,.03,1.67,.93,3.34,1.43,5,3.5,11.58,1.25,23.29,1.2,35-.06,14.81-5.87,28.28-8.05,42.52-.72,4.7-1.22,9.93,.96,14.43,2.5,5.17,7.43,6.26,12.88,6.7,4.19,.34,8.39,.59,12.5,.25,9.34-.78,18.73,.13,28.05-2.23,9.29-2.35,17.47-6.27,24.42-12.71,3.28-3.04,6.79-5.34,11-7.06,13.26-5.44,19.89-15.94,21.54-29.9,2.8-23.59-3.08-45.26-13.95-66.03-14.07-26.9-35.18-47.36-58.51-66.03-13.76-11.01-27-22.66-40.57-33.92-6.98-5.8-14.19-11.31-21.97-16.04-5.86-3.57-12.04-5.84-19.01-5.48-7.36,.39-14.5-.72-21.5-2.99-11.43-3.7-22.29-.67-32.44,4.11-24.64,11.6-49.3,23.19-72.09,38.33-8.92,5.93-16.99,12.73-21.29,22.62-2.49,5.73-4.85,12.39,1.32,17.92"/><path class="b" d="M749,371.5c10.48-1.8,12.12,1.26,15.56,7.97,.47,.92,.5,1.73,.4,2.53-.73,5.79-.84,11.44-5.83,16.14-8.69,8.18-16.11,17.74-26.63,23.85-12.06,7.01-25.11,11.8-37.96,17.08-14.46,5.94-29.84,8.76-44.59,13.75-11.91,4.02-17.53,12.55-20.39,23.69-3.41,13.32-2.94,26.9-2.07,40.49,.92,14.33,1.63,28.67,2.53,43,2.01,31.8,2.26,63.65,2.61,95.5,.09,7.99,.21,16,.38,24,.49,22.67,.98,45.33,1.5,68,.3,13.17,.66,26.33,.99,39.5,.33,13.17,.66,26.33,1.02,39.5,.02,.67,.31,1.33,.48,2"/><path class="b" d="M410,548.5c-3.02,4.23-2.35,9.32-2.89,14.01-2.63,22.75-3.06,45.62-2.54,68.49,.4,17.54,1.65,35.03,3.31,52.51,1.71,18.07,4.04,36.04,6.63,53.99,4.78,33.08,15.23,64.28,31.53,93.48,3.09,5.54,5.19,11.66,9.81,17.37,3.72-7.63,7.24-14.71,10.63-21.84,13.25-27.85,30.52-52.79,54.09-72.9,8.32-7.1,16.45-14.61,26.38-19.66,1.96-1,3.79-2.03,6.03-1.93,1.61,.07,2.63-.83,3.5-2.01"/><path class="b" d="M884,404c-4.91,4.6-5.48,11.05-6.94,17.01-5.81,23.6-9.93,47.54-14.21,71.46-4.32,24.12-7.74,48.38-11.74,72.54-2.88,17.41-4.79,34.98-7.08,52.49-.19,1.47-.03,3-.03,4.5"/><path class="b" d="M611.5,373c-9.91-.23-17.57,5.7-25.99,9.52-17.44,7.89-35.1,15.19-52.96,22.11-19.76,7.66-39.76,14.91-58.53,24.91-19.01,10.13-32.37,25.77-42.58,44.43-1.57,2.87-2.23,6.31-4.94,8.53"/><path class="b" d="M793,160c-4.58-1.85-6.5-6.49-9.96-9.55-9.7-8.55-20.92-14.18-33.02-18.51-21.74-7.79-43.24-16.27-65.06-23.84-17.89-6.2-36.41-9.4-55.46-8.6-4.68,.19-9.39,.46-13.47,3.05-1.66,1.05-3.31,.9-5.03,.95"/><path class="b" d="M633,830c-1.4-2.71-.92-5.64-.99-8.5-.68-27.5-1.13-55.01-2.08-82.5-.65-18.83-1.2-37.66-1.43-56.5-.06-4.51-1.48-9.07,.58-13.66-8.36-3.28-16.71-6.59-25.07-9.83-5.37-2.08-9.18-5.47-11.58-10.97-9.92-22.73-27-38.84-47.84-51.65-9.07-5.58-18.44-7.4-28.54-5.25-4.39,.93-8.69,.79-13.03,.84-9.88,.11-11.5,1.25-14.01,10.56-3.77-2.1-.55-6.51-2.99-9.02"/><path class="b" d="M674.5,55c-15.38,9.54-30.36,19.73-44.35,31.18-4.67,3.82-9.44,7.54-14.08,11.41-14.51,12.1-27.35,25.64-31.49,44.93-2.82,13.14-3.68,26.49-2.68,39.99,.6,8.13,0,16.32,.54,24.5,.73,11.15,1.07,22.33,1.54,33.5,.08,1.81,.42,3.41,2.36,4.58,4.7-2.12,4.99-8.27,9.01-11.31,1.74,1.76,1.36,3.68,.59,5.21-4.32,8.52-5.46,17.82-5.82,27.03-1.11,28.45,3.33,56.08,12.66,83.07,2.73,7.89,6.82,15.25,8.73,23.42,.05,.2,.34,.32,.48,.51,7.93,10.33,14.28,21.97,25.48,29.54,9.64,6.51,19.48,12.46,31.02,14.99,2.2,.48,4.12,1.45,6.59,.13,1.36-.72,3.72-.2,5.39,.4,12.05,4.32,22.07-1.35,31.95-6.7,3.96-2.15,7.13-5.8,10.54-8.9,1.06-.96,1.94-2.29,1.53-3.96"/><path class="b" d="M937.5,423c3.83,4.83,7.51,9.81,11.57,14.44,1.91,2.18,1.24,3.88,.47,6.07-4.74,13.47-9.28,27.02-14.05,40.48-10.77,30.35-21.62,60.68-32.54,90.99-.67,1.87-.36,4.7-3.44,5.02"/><path class="b" d="M729,792c.31,1.64-1.54,2.46-1.62,4.53,4.37,2.88,9.65,3.78,14.61,5.51,17.68,6.17,35.61,11.32,53.99,15.08,14.77,3.02,29.51,4.23,44.53,2.96,5.3-.45,10.67-.23,15.99,0,2.58,.11,4.07-.85,5-3.07"/><path class="b" d="M788,251.5c-3.88,3.88-3.3,9.35-4.87,14.04-1.22,3.64-2.31,7.34-3.63,10.96-.47,1.31-.42,3.02-2.5,3-2.02-.02-2.94-1.63-3.43-3.03-1.58-4.52-1.54-9.39-2.95-14.01-1.19-3.91-2.95-7.6-4.06-11.48-2.46-8.56-8.93-13.94-15.12-19.42-9.41-8.34-20.39-13.91-32.43-17.61-22.21-6.82-44.96-8.7-68.01-7.88-5.18,.18-10.34,1.21-15.5,1.96-1.28,.19-2.66,.65-2.51,2.47"/><path class="b" d="M764,247.5c-2.66,.25-3.53-2.15-4.96-3.54-17.26-16.71-37.95-26.19-61.53-30.02-13.27-2.16-26.61-3.45-40.01-3.82-6.81-.19-13.77,1.86-20.47,1.15-10.05-1.07-17.98,3.23-26,7.78-6.1,3.46-11.22,8.1-14.53,14.45"/><path class="b" d="M874.5,728c3.9,6.12,2.34,13.12-3.46,18.55-11.14,10.43-24.48,16.47-39.07,19.86-7.27,1.69-14.68,.59-21.98-.87-8.4-1.68-16.74-4.14-25.5-2.55-6.38,1.16-12.16,3.97-17.96,6.59-7.47,3.37-14.79,7.1-22,10.98-5.05,2.72-8.39,7.73-13.98,10.06-17.29,7.19-34.22,15.3-51.6,22.27-15.36,6.16-30.83,12.09-46.41,17.74-20.33,7.37-40.82,14.24-61.57,20.29-13.08,3.81-26.42,6.79-39.97,8.61-5.48,.74-10.98,.97-16.5,1-3.78,.02-6.78-2.01-10-3.52"/><path class="b" d="M363,417.75c-3.06,.11-2.63,2.41-2.47,4.25,.98,11.24,4.01,22.01,8,32.49,10.95,28.77,23.49,56.83,37.94,84.02,.91,1.72,.77,3.92,4.1,2.67,2.02-.76,3.03,2.09,3.91,3.82,3.37,6.65,6.67,13.33,10.02,19.99,.9,1.79,1.61,3.55,.49,5.5"/><path class="b" d="M842.5,623.5c-4.34,.32-8,2.68-11.97,4.08-5.77,2.03-11.26,4.88-17.05,6.86-10.97,3.75-19.2,10.64-24.97,20.57-5.74,9.86-12.17,19.57-21.67,25.74-10.63,6.9-23.19,10.08-35.35,13.72-.92,.27-2.41,.47-2.93-.03-6.25-6.08-14.63-4.88-22.09-6.29-24.48-4.62-48.97-9.04-72.47-17.64"/><path class="b" d="M411,540.5c-1.57-4.68,.79-8.78,2.08-12.98,.55-1.8,.78-3.59-.13-4.99-8.1-12.39-13.04-26.33-19.33-39.59-6.14-12.94-12.84-25.72-17.01-39.48-3.03-10.01-5.27-20.27-7.51-30.49-.75-3.42-2.54-5.94-4.18-8.63-2.01,.52-1.8,2.39-2.91,3.15"/><path class="b" d="M840,647c.91,7.59-.95,15.03-1.67,22.48-1.69,17.66-3.18,35.32-4.43,53.01-.87,12.34-.88,24.67-.88,37.01,0,2.17,.31,4.33,.48,6.5"/><path class="b" d="M363,418.5c2.33,8.83,4.14,17.85,7.09,26.47,10.32,30.16,22.57,59.52,37.93,87.52,.51,.92,1.31,1.68,1.98,2.51"/><path class="b" d="M743,115.5c-10.63-.57-21.27-1.08-31.51-4.48-.45-.15-1.12,.18-1.47-.05-2.35-1.5-6.34-1.58-5.51-5.97,.75-3.96,3.97-2.68,6.49-3.02,9.1-1.23,17.65-4.41,25.97-8.05,8.97-3.93,17.97-7.92,25.59-14.36,1.09-.92,2.05-1.7,2.48-3.1-1.05-.83-1.71-1.57-3.56-1.07-17.79,4.84-34.19,12.77-49.92,22.19-1.28,.77-3.05,1.83-3.05,3.92"/><path class="b" d="M950,438.25c4.08-10.62,6.77-21.64,8.92-32.77,1.59-8.23,2.98-16.55,3.06-24.98,.02-1.71,.48-3.56-1.31-5.32-5.37,4.67-7.63,11.3-10.6,17.36-4.27,8.7-8.29,17.54-12.02,26.49-7.88,18.91-16.3,37.6-23.1,56.96-4.2,11.94-8.9,23.7-13.5,35.5-.5,1.27-.42,3.21-2.44,3.52"/><path class="b" d="M361,407.5c-1.95-3.13-1.07-5.72,1.51-8.01,5.27,.46,8.13,4.6,10.88,8.1,10.45,13.24,22.1,25.6,31.02,39.97,7.77,12.5,15.29,25.15,22.71,37.88,12.39,21.26,25.56,42.06,38.37,63.07,7.71,12.64,15.37,25.31,22.99,38.01,2.28,3.8,.73,6.95-3.45,6.28-2.64-.43-4.64,.54-6.47,1.35-6.64,2.91-13.7,4.34-20.59,6.25-12.88,3.57-15.93-1.2-21.08-9.32-4.7-7.41-7.74-15.83-14.26-22.2-2.77-2.71-4.4-6.75-6.05-10.4-1.68-3.72-3.47-7.34-6.11-10.44-1.49-1.75-.73-3.68-.97-5.53"/><path class="b" d="M833,773.5c-7.43-3.04-15.37-1.27-23.02-2.39-4.77-.7-9.2-2.49-13.95-3.33-6.21-1.09-11.76-.76-17.57,1.65-11.39,4.72-22.48,10.02-33.46,15.6-1.92,.98-3.81,1.78-6.01,1.48"/><path class="b" d="M774,278.5c-1.69,1.96-.94,4.32-.97,6.5-.35,25.51-4.99,50.03-16.54,72.99-.71,1.4-1.59,2.72-2.41,4.06-6.66,10.94-14.79,20.84-23.74,29.79-10.5,10.49-22.46,19.3-37.31,23.25-3.5,.93-7.27-.05-10.52,1.91"/><path class="b" d="M493,710.5c-4.69,2.75-2.3,6.41-.38,8.9,4.83,6.25,11.27,10.27,19.38,11.1,11.21,1.15,22.43,.57,33.47-1.17,5.94-.94,11.68,.19,17.53-.23,19.81-1.43,39.66-2.39,59.49-3.64,3.68-.23,7.34-.96,11-1.46"/><path class="b" d="M896,530c-3.16,2.38-3.27,6.25-4.44,9.52-6.39,17.83-14.17,35.07-21.45,52.53-1.31,3.15-3.45,6.7-1.11,10.45"/><path class="b" d="M493.5,609c3.89-.38,5.68,3.79,9.49,4.14,4.88,.44,9.69,1.81,14.51,2.88,5.13,1.13,9.87,3.32,13.96,6.54,4.72,3.73,4.14,6.58-1.45,9.45-8.31,4.26-16.59,3.14-23.91-1.64-9.17-5.98-18.56-10.56-29.58-11.98-8.4-1.08-12.07-11.73-7.05-18.9,.24-.34,.03-.98,.03-1.48"/><path class="b" d="M625.5,92c.49,2.65,3.04,2.36,4.5,2.37,9.17,.06,18.43,.96,27.48-.95,8.18-1.72,15.95-4.74,23.56-8.34,13.21-6.25,26.03-13.11,37.96-21.58,2.35-1.67,4.88-3.12,6.2-6.3-4.48-1.55-8.21,.93-11.65,2.43-15.47,6.75-30.84,13.81-44.53,23.9-2.87,2.11-6.46,3.75-7.03,7.96"/><path class="b" d="M727,694.5c-4.22,1.38-8.15,3.6-13.05,2.18-2.02-.59-4.73,.53-6.93,1.37-14.2,5.41-28.34,10.97-42.52,16.44-2.46,.95-5.07,1.51-7.47,2.57-1.84,.82-4.7,.36-5.03,3.44"/><path class="b" d="M414,527c5.26,6.71,8.14,14.77,12.4,22.06,4.92,8.42,9.1,17.27,13.6,25.94,.51,.99,1.06,1.97,1.49,3,2.3,5.46,2.09,8.29-4.99,10"/><path class="b" d="M716,698c-3.04,3.5-7.65,3.76-11.54,5.41-13.31,5.64-26.82,10.79-40.42,15.71-6.75,2.44-13.86,1.23-20.57,3.31-2.88,.89-5.98,1.07-8.98,1.57"/><path class="b" d="M619,380.5c5.01,1.1,7.35,5.67,10.94,8.58,10.87,8.8,21.97,17.2,34.57,23.42,3.56,1.76,8.04,1.27,11,4.51"/><path class="b" d="M790,137.5c6.71,1.61,13.41,.24,19.98-.64,9.65-1.28,19.31-2.85,28.55-6.29,1.86-.69,3.64-1.07,4.51-3.01-1.13-1.79-2.88-1.49-4.54-1.58-12.38-.62-24.53,1.26-36.47,4.15-4.82,1.17-9.73,2.95-13.08,7.32-2.25,2.94-5.67,.86-7.9,.31-12.7-3.13-24.66-8.35-36.03-14.82-3.99-2.27-4.1-5.76-.52-8.45,10.82-8.1,22.79-14.11,35.55-18.33,3.56-1.18,7.31-3.25,11.51-2.01,1.04,2.74-1.87,3.51-3.14,4.2-10.77,5.82-21.9,10.88-33.92,13.68-1.42,.33-2.68,.64-4.01-.05"/><path class="b" d="M936.5,421c-5.42-5.07-9.93-11.04-15.94-15.58-4.47-3.37-9.01-6.77-14.12-8.77-8.28-3.25-15.98-2.63-21.44,4.35"/><path class="b" d="M473,650.5c-5.87,3.71-2.75,8.96-1.28,12.92,2.85,7.71,8.3,14.04,13.19,20.65,3.77,5.08,8.88,6.85,14.59,7.93"/><path class="b" d="M846.5,644.5c1.94,3.58,5.34,2.69,7.96,1.88,6.29-1.95,12.38-4.52,18.54-6.88,10.79-4.15,21.89,1.69,24.48,13.01,1.57,6.86-2.28,11.92-5.97,17-3.46,4.76-8.48,7.37-13.51,9.99"/><path class="b" d="M660.5,93.5c.36,2.63,2.44,3,4.5,3.51,12.99,3.25,26.11,5.73,39.5,6.49"/><path class="b" d="M807.5,207c2.32-.65,4.4,.03,6.51,.98,10.24,4.63,19.76,10.44,28.49,17.52,.61,.5,1.28,1.02,.87,2.33-1.54,1.4-3.14,.38-4.88-.31-12.92-5.13-24.66-12.09-34.47-22.04-3.25-3.3-1.96-7.58-1.95-11.48,0-3.17,.47-6.35,.97-9.49,.48-3,1.91-5.15,5.46-5.02,14.59,.54,28.1,5.3,41.5,10.51,2.53,.98,4.7,2.47,6.5,4.5"/><path class="b" d="M811,181c2.93,3.76,7.42,4.78,11.51,6.48,9.79,4.08,19.99,6.61,30.49,8.03,.96,.13,1.47-.41,2-1.01"/><path class="b" d="M636,895.5c.33,.67,.98,1.34,.95,2-.4,12.34,1.47,24.67,.08,37-.16,1.38-.24,2.67-1.53,3.5"/><path class="b" d="M635,895.5c-.75,.86-1.01,1.84-1.02,3-.13,11.5-.25,23-.52,34.5-.08,3.3,2.67,6.08,1.54,9.5"/><path class="b" d="M426.5,485.5c-4.31,6.58-6.21,14.12-8.49,21.5-1.58,5.11-2.77,10.35-5.01,15.25"/><path class="b" d="M474.5,619c-.17,.17-.31,.43-.5,.49-10.5,2.8-13.27,8.19-8.39,17.96,2.92,5.84,6.45,11.37,12.32,15.17,5.03,3.26,10,6.85,13.57,11.89"/><path class="b" d="M636.5,830.5c.48,11.68,1.49,23.36-.5,35"/><path class="b" d="M632,832c1.24,9.3,.95,18.66,1.02,28,.01,1.87-.57,3.89,.98,5.5"/><path class="b" d="M887,676c4.6,4,4.96,5.48,3.01,11.5-2.15,6.65-6.45,12.01-10.58,17.45-.98,1.3-3.09,1.23-4.53,2.44-1.44,1.2-2.47,2.22-2.4,4.11"/><path class="b" d="M635,867c.17,9.17,.33,18.33,.5,27.5"/><path class="b" d="M489.5,603c2.39,6.69,6.21,12.12,13,15.01,3.27,1.4,5.68,3.93,7.97,6.52,2.07,2.34,2.76,5.05,1.03,7.97"/><path class="b" d="M486,688c-3.97,4.97-.58,9.78,1.26,13.89,1.98,4.43,5.44,8.42,11.23,9.24,2.42,.34,5.9,.36,6.02,4.38"/><path class="b" d="M888.5,608c-5.67-1.5-11.39-2.8-16.98-4.56-5.19-1.63-6.11-.84-8.43,3.6-1.62,3.1-2.25,6.7-3.65,9.93-.95,2.18,.26,3.87,.56,5.76-2.5,1.75-3.45,5.1-6.5,6.27"/><path class="b" d="M880,706c3.11,4.46,1.36,8.84-.59,12.96-1.21,2.54-2.67,5.12-4.91,7.04"/><path class="b" d="M897.5,592c-3.85,4.98-3.77,11.98-8.5,16.5-.56,9.2-7.58,13.36-14,18"/><path class="b" d="M827.5,645c2.07-.08,4.04,.7,6.01,.87,2.83,.24,5.65-.22,8.59-.97,3.6-.92,4.88-2.52,5.91-5.4,1.55-4.32,4.53-7.89,4.72-13,.18-4.79-1.85-4.87-5.23-4.53-1.34,.13-2.71,.02-4.42,.02,.03,6.2-.8,11.85-1.54,17.5-.2,1.54-.36,3.21,.96,4.5"/><path class="b" d="M795.5,164c.83,.67,2.25,1.22,2.41,2.02,1.11,5.49,5.22,9.1,8.09,13.48"/><path class="b" d="M860.5,623c4,.83,8.04,1.52,11.99,2.54,3.53,.91,5.6,4.42,5,7.95-.26,1.51-.65,3-.99,4.5"/><path class="b" d="M803.5,205.5c-2.76,.91-3.13,4.2-5.5,5.5"/></svg>