<?xml version="1.0" encoding="UTF-8"?><svg id="a" xmlns="http://www.w3.org/2000/svg" viewBox="0 0 947 847.99"><defs><style>.b{fill:none;stroke:#000;stroke-linecap:round;stroke-linejoin:round;stroke-width:2px;}</style></defs><path class="b" d="M510.5,152.99c8.78,.97,12.76-4.98,15.92-11.54,2.29-4.77,5.54-8.08,10.6-9.4,1.78-.46,3.63-.35,5.52-.94,8.7-2.74,12.33-9.75,10.59-18.65-2.33-11.93-6.18-23.38-9.47-35.02-1.62-5.73-1.24-12-2.23-17.94-1.11-6.63-2.95-12.29-10.29-15.8-8.84-4.22-15.35-12.2-23.14-18.21-10.26-7.92-20.04-16.56-32-21.98-7.4-3.35-14.41-4.23-20.57,2.91-2.9,3.36-6.98,5.44-10.9,7.6-11.28,6.2-23.32,10.71-35.01,15.99-15.83,7.14-31.67,14.22-44.56,26.42-5.55,5.25-7.54,12.44-11.42,18.57-8.2,12.97-11.28,28.29-18.98,41.51-4.43,7.59-8.37,15.4-14.97,21.55-5.6,5.22-5.41,8.94-.58,14.95,4.63,5.76,6.54,12.92,9.41,19.53,3.07,7.07,6.66,12.74,14.52,15.69,5.63,2.11,10.23,6.79,15.63,9.68,10.36,5.56,13.81,.52,15.82-7.96,2.44-10.27,.46-20.62-.7-30.99-1.22-10.93-3.45-21.66-5.04-32.5-.21-1.46-.82-2.66-1.2-3.96-3.2-11.14,.95-19.61,10.13-25.42,15.59-9.87,30-21.63,46.5-29.98,12.15-6.15,25.04-8.6,38.97-6.32,11.75,1.92,22.68,5.2,33.02,11.11,7.61,4.35,11.02,10.81,12.51,19.08,3.35,18.57,3.03,37.29,2.94,56.01-.02,3.18-1.51,5.7-3.5,8"/><path class="b" d="M641,829.99c-2.5,0-5-.04-7.5,0-87.49,1.79-175,.47-262.5,1.19-17.49,.14-35,.58-52.5,.89-4.12,.07-7.8-1.39-10.88-3.29-3.76-2.31-6.35-5.62-4.46-11.4,1.15-3.49,1.17-7.87,1.44-11.88,.82-12.18,1.05-24.39,2.74-36.53,.8-5.73,1.55-11.37,2.96-17.03,1.19-4.77,3.33-8.7,6.27-12.58,15,12.27,32.71,18.07,51.41,21.66,13.89,2.66,27.91,3.33,41.99,4.27,11.27,.75,22.38-.34,33.51-.63,10.99-.29,22.05-1.84,33.03-3.52,14.96-2.29,29.8-5.01,44.47-8.66,15.67-3.89,30.6-9.89,45.51-15.98,13.15-5.37,25.94-11.64,39.49-16.03,3.1-1,6.26-1.3,9.49-1.63,4.4-.46,6.82,1.5,7.96,5.16,3.92,12.51,7.6,25.06,10.21,37.95,1.38,6.83,1.08,13.81,2.83,20.53,.76,2.93-.65,5.71-1.13,8.47-2.1,12,1.96,22.96,5.38,33.95,.73,2.36,.56,4.8,1.47,7.19,.88,2.31-1.27,4.76-4.7,4.94-7,.37-14.06,.48-20.98,1.19-8.37,.85-16.77-.16-25.01,.9-11.86,1.53-23.75-.19-35.5,1-15.02,1.51-30.07-.22-45,1.01-19.02,1.56-38.06-.28-57,1.01-23.02,1.56-46.05-.32-69,1-27.85,1.6-55.71-.34-83.5,1-33.51,1.61-67.03-.32-100.5,.99-42.17,1.65-84.36-.36-126.5,1.1-24.52,.85-49.01,.22-73.51,.76"/><path class="b" d="M644,623.99c1.82,5.73,.04,11.45-.71,16.97-1.34,9.83-3.67,19.52-6.7,29.06-5.75,18.07-15.68,32.51-32.54,42.04-23.62,13.36-49.03,21.78-75,29.07-14.74,4.14-29.6,7.77-44.58,10.65-12.02,2.31-24.15,4.36-36.45,5.38-8.67,.71-17.35,1.27-25.99,2.08-6.7,.62-13.4,1.1-20.01,.64-21.65-1.52-43.45-2.62-63.04-13.82-3.06-1.75-6.04-3.6-9.04-5.44-3.58-2.19-7.6-4.67-11.93-1.12"/><path class="b" d="M506,149.49c1.44-8.12-.53-16.03-1.49-24-.08-.66-.04-1.33,0-2,.5-9.86-1.47-19.62-1.09-29.5,.26-6.87-2.36-12.2-9.38-15.07-11.64-4.77-23.22-8.95-36.01-10.15-14.38-1.35-27.24,2.33-39.47,8.82-16.13,8.55-29.76,20.63-43.52,32.45-4.31,3.7-4.09,9.1-3.39,13.94,1.07,7.43,1.98,14.92,4.74,22.07,1.29,3.33,2.51,6.48,5.67,9.47,4.6-4.76,9.32-9.52,15.44-12.55,11.72-5.81,24.07-9.16,37-11.09,9.37-1.4,18.7-.92,28.02-.72,10.03,.22,19.26,4.3,27.93,8.99,6.38,3.46,12.08,8.19,18.08,12.36"/><path class="b" d="M531.5,239.49c4.04-5.97,4.43-8.91-2.5-15.5-2.84,3.33-2.47,9.23,.46,15.02,5.67,11.23,15.41,17.63,26.57,21.89,17.53,6.69,35.31,12.72,52.96,19.11,10.83,3.92,21.61,8.14,31.41,14.13,9.05,5.54,15.47,14.14,22.11,22.34,24.22,29.92,45.78,61.67,64.96,95.03,13.02,22.65,23.27,46.6,32.45,71.01,1.48,3.94,2.94,8.02,2.62,12.48-.3,4.22-1.68,5.8-6.05,5.99-4.76,.21-9.16-1.37-13.49-3.03-8.27-3.18-16.55-6.41-22.93-13.38,4.04-5.12,9.08-2.49,12.84-1.35,10.02,3.03,19.65,7.27,26.57,15.77"/><path class="b" d="M946,828.99c-34.33,0-68.69-.73-103,.16-65.5,1.7-131.01,.24-196.5,.86-1.5,.01-3,.31-4.5,.48"/><path class="b" d="M281,481.99c-.8,1.6-.56,3.33-.48,5,.53,10.91,.38,21.91,.41,32.75,.04,14.87-.5,29.85-.21,44.74,.21,10.99,.29,22.02,.91,33,.6,10.67,1.1,21.37,2.04,31.99,2.15,24.36,4.69,48.74,10.9,72.5,3.75,14.34,9.94,27.5,21.43,37.52"/><path class="b" d="M292,550.99c-2.42,.79-3.35,3.29-3.31,5,.08,3.93-1.27,7.61-1.24,11.5,.12,14.83,.05,29.67,.05,44.5,0,5.97,.39,6.37,6.5,7.01,7.15,.74,14.33,.76,21.49,1.13,8.5,.44,16.99,.98,25.51,.87,10.34-.14,20.67-.87,30.99-1.26,7.81-.3,15.77-.85,23.52-2.69,5.13-1.22,5.98-1.9,5.99-7.06,0-7.33-.03-14.67,.01-22,.03-4.95,1.63-5.99,6.5-5.08,2.42,.45,4.99-.02,7.48,.1,2.65,.13,2.93-1.33,3.06-3.52,.3-4.85,.94-9.67,1.44-14.5"/><path class="b" d="M292,550.49c5.06,1.73,9.96-.91,15.01-.78,1.32,.03,3.32-.66,4.99-.68,9.33-.08,18.67-.11,28-.02,11.18,.1,22.33-.88,33.49-1.29,8.66-.32,17.56-.85,26.03-3.66,3.05-1.01,5.87-2.15,7.95-4.59,1.96-2.29,1.08-4.01-1.49-4.95-1.78-.65-3.63-1.3-5.49-1.49-14.8-1.46-29.68-1.52-44.48-.78-5.99,.3-12.02,.73-18.01,.66-11.69-.15-23.3,1.41-35,1.4-2.86,0-6.38,.65-9.57,1.4-4.05,.96-7.32,2.89-7.61,6.31-.26,3.11,1.92,6.63,5.68,7.97"/><path class="b" d="M416,278.99c-3.71-.25-6.76,.75-10.12,2.81-6.4,3.93-14.1,4.62-21.38,6.19-22.51,4.84-44.98,9.59-65.05,21.92-14.36,8.82-25.14,20.47-31.4,36.1-3.44,8.57-10.42,12.48-18.56,14.94-6.66,2.01-13.56,2.26-20.49,2.09-2.01-.05-4.22-.68-6,.96"/><path class="b" d="M514.5,196.99c1.17,1.83,2.25,3.73,3.53,5.48,.8,1.09,1.76,1.84,3.48,1.61,2.06-.27,2.84-1.84,2.89-3.09,.39-9.49,4.37-18.39,4.2-28-.1-5.51-2.75-9.29-6.64-12.45-2.54-2.06-6.41-.5-7.42,2.96-1.84,6.35-3.36,12.7-2.63,19.5,.65,6.12,.93,12.28,.9,18.49-.03,6.1,.3,12.34,.77,18.49,.68,8.88-2.02,16.83-6.67,23.95-12.03,18.38-28.5,30.63-50.4,35.11-11.29,2.31-21.53,.55-31.05-5.99-2.32-1.59-5.09-3.63-7.96-.56"/><path class="b" d="M166,476.99c-5.26,3.84-6.97,9.99-8.24,15.56-2.23,9.76-2.48,19.86,1.75,29.44,4.73,10.7,18.77,23.93,32.99,22.91,11.95-.86,17.08-6.27,18-17.41,.01-.17,0-.33,0-.5,.47-17.38-1.2-17.64-19.04-24.91-9.47-3.86-18.25-8.25-23.45-17.59-.91-1.63-1.68-3.33-2.51-4.99"/><path class="b" d="M510.5,175.99c-1.45-3.52-2-7.34-1.87-11,.23-6.4-2.35-10.93-7.65-13.97-11.66-6.7-23.98-11.32-37.46-13.21-7.4-1.04-14.76-1.2-22.01-.65-17.11,1.3-33.8,4.7-48.5,14.35-9.64,6.33-14.71,14.15-11.7,29.02,.55,2.7,1.52,5.55,1.19,8.46"/><path class="b" d="M530.5,242.49c-10.69,10.58-20.02,22.37-27.84,35.1-9.69,15.78-23.75,24.45-41.18,28.32-11.82,2.62-23.31,2.11-33.52-5.86-5.63-4.39-8.78-10.28-11.36-16.6-.43-1.05-.71-2.42-.21-4,1.84-5.82-.26-10.71-4.36-14.98-4.25-4.42-8.59-8.79-12.46-13.53-5.88-7.2-9.52-15.25-9.14-24.96,.37-9.69,.55-19.44-1.8-29.02-.27-1.1-.86-1.94-1.14-2.97-.82-3.01-3.21-4.27-5.98-4.43-2.83-.17-3.6,2.41-4.47,4.44-2.54,5.93,1.3,16.75,7.3,20.17,3.14-3.72,2.28-7.94,1.71-12.19-.49-3.67-2.42-7.14-1.54-11"/><path class="b" d="M566,520.49c-1.94,6.86,2.48,12.2,4.63,17.95,3.28,8.79,9.11,16.41,12.03,25.5,1.4,4.35,1.04,7.69-2.18,10.52-14.37,12.62-30.66,22.11-49.05,27.26-5.32,1.49-12.14,1.73-16.41-4.23-.56-.78-1.33-.49-2.01-.48-3.47,.08-5.62-1.99-7.55-4.07,.3-2.98,1.83-4.77,3.55-6.45"/><path class="b" d="M636,498.99c2.4,8.85,3.27,17.96,4.48,27,1.41,10.49,2.92,20.97,3.92,31.51,.57,5.97,.66,12.01,.92,18,.57,13.48,.17,26.99,.19,40.49,0,1.67-.31,3.4,.49,5"/><path class="b" d="M265,424.49c-2.42-2.21-5.68-2.81-8.36-4.26-4.41-2.39-7.05-7.22-10.09-11.28-3.7-4.95-6.89-10.29-11.55-14.46-3.56-3.19-7.05-3.64-10.43-.42-4.03,3.84-8.19,7.05-13.52,9.07-3.92,1.49-5.26,6.28-8.54,8.87-.63,.5-.89,1.7-1.54,1.92-6.86,2.28-9.3,8.26-11.98,14.06-.47,1.01-.74,2.32-1.53,2.95-9.61,7.75-10.94,19.72-15.42,30.07-.16,.36-.04,.65-.54,.48"/><path class="b" d="M255,442.49c-.92-2.57-2.65-4.97,.43-7.59,2.07-1.77,4.31-2.43,6.54-1.8,2.74,.78,2.57,3.52,2.53,5.89-.08,4.52,1.2,8.94-.81,13.58-1.47,3.4,1.31,6.96,2.33,10.41,2.27,7.69,4.52,15.38,7.07,22.97,.58,1.72,.19,2.93-.63,4-13.13,17.09-30.44,24.84-51.96,23.04-1.9-.16-4.32-.57-4.86-2.06-2.47-6.74-9.03-7.38-14.19-9.84-7.67-3.66-15.96-5.99-22.97-11.08-3.63-2.63-7.29-5.05-8.05-10.02-.16-1.08-1.05-2.59-1.96-2.92-5.39-1.93-2.88-5.25-1.39-8.05,1.26-2.36,3.27-4.32,3.92-7.04"/><path class="b" d="M589.5,579.99c-4.37-.49-8.24,.99-12.01,2.99-9.44,5.01-17.53,11.47-23.53,20.49-5.09,7.65-4.85,16.61,1.96,23.1,9.48,9.03,19.86,16.4,32.6,19.84,4.72,1.27,9.75,1.75,13.97-1.92,1.49-1.3,2.3-2.94,2.01-4.99"/><path class="b" d="M411,547.99c-5.18-.66-10.04,1.41-14.95,2.28-6.17,1.1-12.4,1.85-18.57,2.57-19.58,2.3-39.29,2.66-58.98,2.04-6.37-.2-12.86-.7-19-2.89"/><path class="b" d="M596.5,601.49c-3.87-7-5.09-14.67-6.07-22.49-1.31-10.45-2.02-20.97-5.79-31.06-3.08-8.25-6.96-15.95-12.2-22.9-4.52-5.98-11.17-8-18.41-9.17-8.35-1.34-16.75-1.35-25.01-.73-24.15,1.83-48.1,4.87-68.52,19.84-3.47,2.54-6.95,5.07-10.51,7.48-2.03,1.38-2.84,3.74-2.3,5.47,.82,2.62,3.25,3.95,6.32,4.11,6.21,.32,11.62-2.07,16.99-4.59,4.25-2,8.36-4.29,12.51-6.47,1.26-.67,2.25-2.33,4-.99"/><path class="b" d="M760,500.99c1.81,5.23-.07,10.4-.67,15.48-.85,7.11-1.91,14.29-4.75,21.05-1.38,3.28-3.17,5.98-6.3,8.35-5.24-13.53-12.46-25.57-21.72-36.44-3.34-3.92-6.92-7.51-11.12-10.36-1.92-1.3-4.82-2.19-6.85-.49-1.98,1.67-1.13,4.02-.18,6.43,5.14,13.01,14.37,22.96,24.18,32.36,4.01,3.85,7.91,8.43,14.4,8.72,1.77,.08,2.02,2.66,1.39,3.82-1.36,2.49-2.61,5.14-4.88,7.07-9.43,8.04-19.28,15.51-29.52,22.47-21.62,14.7-43.76,28.58-66.49,41.52-10.38,5.91-20.92,11.53-32.04,15.9-3.25,1.28-6.78,2.37-10.46,2.1"/><path class="b" d="M230.75,358.99c.74,3.08-3.67,5.74-.04,8.82-5.21,2.47-9.37,5.64-11.05,10.24-3.88,10.6-12.29,16.21-21.07,22.08-9.74,6.51-20.04,12.44-27.64,21.82-7.17,8.85-10.4,18.73-9.46,30.04,.37,4.49,3.94,7.94,10.01,9.5"/><path class="b" d="M258.08,465.09c-3.32,2.79-5.9,.63-8.01-1.18-6.19-5.28-13.38-9.39-18.17-16.35-2.46-3.57-6.27-6.06-9.84-8.65-1.17-.85-1.94-.93-3.06,.03-.01,2.14,1.99,3.44,3.5,5.05,8.5,9.06,18.23,16.79,27.5,25,4.94,4.38,5.17,6.91,.83,11.69-2.56-1.37-4.38-3.38-5.47-6,1.22-3.02,4.07-2.32,6.14-3.19"/><path class="b" d="M655.5,493.99c2.98,2.07,6.41,1.14,9.49,.86,5.71-.52,11.64-.21,17.46-2.81-1.97-2.45-4.49-3.07-6.94-2.98-6.96,.25-13.82,1.17-20.53,3.34-4.76,1.54-9.7,2.48-14.5,4-7.1,2.25-13.36,6.44-20.94,7.79-7.33,1.31-14.73,2.3-22.03,3.8-9.59,1.97-19.52,2.42-28.56,6.87-1.45,.71-2.33,1.71-3.44,2.62"/><path class="b" d="M282.5,464.49c2.53-9.79,4.77-19.59,.83-29.57-1.99,1.53-2.96,3.33-2.82,5.57,.54,8.33-.53,16.65,.62,25.05,.41,2.99-1.17,6.88-1.1,10.45,.02,1.16-.45,2.34,.43,3.52,5.72,7.68,7.48,17.21,11.85,25.57,2.74,5.24,6.38,9.67,9.7,14.39,4.03,5.73,3.75,7-3.04,8.96-2.9,.84-6,1.56-8.98,1.45-5.41-.2-5.79-5.24-7.5-8.89"/><path class="b" d="M264,443.49c-1.33,0-2.69-.16-4,.03-5.17,.76-9.31-.54-12.57-4.98-3.57-4.86-8.3-8.78-11.52-13.99-.81-1.31-1.92-2.93-3.94-3.14-2.69,2.99,.5,4.92,1.65,6.49,6.19,8.51,13.82,15.8,20.88,23.59,1.98,2.19,3.97,4.36,6.01,6.5,1.47,1.54,1.5,3.01,0,4.51"/><path class="b" d="M636.5,497.49c-1.32-1.28-.99-2.93-1-4.5,0-10.67,.23-21.34-.09-32-.21-6.85-1.05-13.7-2-20.49-.43-3.06-1.45-6.26-5.92-5.54-3.84,.62-5.24,2.88-5,6.53,.58,8.73,5.56,15.5,10.03,22.48,.43,.67,.56,2.02,1.97,1.52"/><path class="b" d="M172.5,461.99c3.96,3.45,9.06,1.82,13.56,2.72,4.2,.84,7.91,1.71,11.51,4.19,5.53,3.82,11.86,6.1,18.44,7.59,3.63,.82,7.35,1.79,8.56-3.48,.04-.19,.94-.18,1.44-.26"/><path class="b" d="M230,368.99c.37,6.2,4.6,10.58,7.58,15.45,6.74,11,13.9,21.73,20.95,32.53,.43,.66,1.3,1.02,1.97,1.52"/><path class="b" d="M491,537.49c-10.44,12.24-24.71,19.36-38.18,27.2-8.07,4.7-13.62,10.7-18.41,18.25-2.99,4.71-8.05,2.72-13.66,3.16,3.16-4.61,1.14-8.92,2.56-13.17,1.9-5.67-1.09-8.7-7.32-8.97-4.17-.18-8.45,.76-12.6-.59,.89-6.67,6.05-10.55,8.6-15.88"/><path class="b" d="M269.5,430.99c1.02-.13,1.93,.01,2.47,1.02,6.09-5.01,7.11-8.24,5.64-13.55-1.09-3.95-4.03-5.39-7.15-6.34-2.73-.83-5.12,.15-4.98,3.87,.16,4.64,.19,9.08,2.32,13.6,1.82,3.87,1.65,8.63,2.75,12.89,2,7.71,4.2,15.37,6.54,22.99,.41,1.34,.34,3.71,2.92,3.53"/><path class="b" d="M449,565.99c.54-4.79,5.96-4.7,8.29-8.39-2.12-.83-3.69-.39-5.83,.23-8.38,2.4-16.92,4.3-25.48,6.03-1.47,.3-2.16,1.47-3.47,1.63"/><path class="b" d="M440.5,575.99c5.76,7.3,13.59,5,21,4.47,3.52-.25,6.81-2.29,10.5-1.47"/><path class="b" d="M225,466.49c-.16-2.28-2.2-3.17-3.54-4.45-6.07-5.77-12.27-11.4-18.47-17.03-1.37-1.24-2.75-2.9-5.28-1.44,2.67,5.11,6.93,8.52,11.26,11.96,4.15,3.31,8.04,6.96,12.03,10.46,1.01,.89,1.87,2.29,3.5,1"/><path class="b" d="M600.5,614.49c-2.18,6.57-.8,13.35-.77,20,0,1.92,2.01,4.75,5.27,4.5"/><path class="b" d="M592,582.49c2.73,.28,2.74,2.68,3.5,4.5,2.02,4.8,3.33,9.55,2.73,15.03-.39,3.53,.71,7.69,2.41,10.9,4.32,8.12,4.88,16.74,4.86,25.58"/><path class="b" d="M500,580.49c-8.59,.98-16.61,5.19-25.5,4.5-1.23-.1-2.66,.48-3.5-1"/><path class="b" d="M457.5,538.49c1.41,.88,2.83,1.77,4.19,2.62-3.02,6.14-6.47,7.2-13.19,4.38"/><path class="b" d="M493,582.49c-.17,1.83-2.92,3.34-.52,5.52,2.75,2.5,5.94,3.58,9.5,2.87,1.14-.23,1.89-2.18,3.52-.89"/><path class="b" d="M636.5,472.49c1.65,.58,2.24,2.25,2.41,3.51,.82,6.37,5.15,8.06,10.59,8.49"/><path class="b" d="M487.5,572.24c-3.01,3.17-7.17,4.29-11.05,5.62-3.14,1.08-5.27,2.64-6.45,5.63"/><path class="b" d="M273.5,489.99c2.82,4.26,2.06,9.79,5,14"/><path class="b" d="M229.5,357.99c-1.5-1.33-1.47-2.63-.01-4.01,1.57-1.5,3.36-1.42,4.99-.45,4.03,2.4,6.03,6.45,8.02,10.46"/><path class="b" d="M241.5,363.49c-3.67,1.33-7.33,2.67-11,4"/><path class="b" d="M279.5,478.99c-3.08,1.58-3.19,5.35-5.5,7.5"/><path class="b" d="M649,484.99c-.5,2.61-1.49,5.29,1,7.5"/></svg>